<?xml version="1.0" encoding="UTF-8"?>
<svg width="364px" height="12px" viewBox="0 0 364 12" version="1.1" xmlns="http://www.w3.org/2000/svg" xmlns:xlink="http://www.w3.org/1999/xlink">
    <!-- Generator: Sketch 48.1 (47250) - http://www.bohemiancoding.com/sketch -->
    <title>IOS-StatusBarBlack</title>
    <desc>Created with Sketch.</desc>
    <defs></defs>
    <g id="Page-1" stroke="none" stroke-width="1" fill="none" fill-rule="evenodd">
        <g id="Status-Bar/Black/100%" transform="translate(-6.000000, -5.000000)" fill="#030303">
            <g id="Pin-Right" stroke-width="1" fill-rule="evenodd" transform="translate(309.000000, 3.000000)">
                <path d="M37.4937128,2.5 L57.0062872,2.5 C57.8266197,2.5 58.5,3.17394722 58.5,4.00530324 L58.5,10.4946968 C58.5,11.3319784 57.831242,12 57.0062872,12 L37.4937128,12 C36.6733803,12 36,11.3260528 36,10.4946968 L36,4.00530324 C36,3.16802155 36.668758,2.5 37.4937128,2.5 Z M59,5.5 L59.75,5.5 C60.1671014,5.5 60.5,5.83232111 60.5,6.24225998 L60.5,8.25774002 C60.5,8.66440529 60.1642136,9 59.75,9 L59,9 L59,5.5 Z M37.5081524,3 C36.9513652,3 36.5,3.45699692 36.5,4.00844055 L36.5,10.4915594 C36.5,11.0485058 36.9490581,11.5 37.5081524,11.5 L56.9918476,11.5 C57.5486348,11.5 58,11.0430031 58,10.4915594 L58,4.00844055 C58,3.45149422 57.5509419,3 56.9918476,3 L37.5081524,3 Z M37.5067444,3.5 L56.9932556,3.5 C57.2697754,3.5 57.5,3.72031886 57.5,3.99209595 L57.5,10.5079041 C57.5,10.783628 57.2731228,11 56.9932556,11 L37.5067444,11 C37.2302246,11 37,10.7796811 37,10.5079041 L37,3.99209595 C37,3.71637201 37.2268772,3.5 37.5067444,3.5 Z" id="Battery"></path>
                <text id="100%" font-family=".AppleSystemUIFont" font-size="12" font-weight="normal">
                    <tspan x="2.85351562" y="12.5">100%</tspan>
                </text>
            </g>
            <text id="9:41-AM" font-family=".AppleSystemUIFont" font-size="12" font-weight="normal">
                <tspan x="164.255859" y="15.5">9:41 AM</tspan>
            </text>
            <g id="Pin-Left" stroke-width="1" fill-rule="evenodd" transform="translate(6.000000, 3.000000)">
                <path d="M90.1444208,9.43850432 L88.0225391,11.5 L85.8601652,9.40531769 C86.3778594,8.83143413 87.1390073,8.46891192 87.987563,8.46891192 C88.8523616,8.46891192 89.626374,8.84544555 90.1444208,9.43850432 Z M92.3234964,7.32144245 L91.2346215,8.37932931 C90.4356305,7.51823504 89.2768836,6.97668394 87.987563,6.97668394 C86.713648,6.97668394 85.567205,7.5053708 84.7692987,8.34859996 L83.6792698,7.29269359 C84.7566264,6.17975893 86.2882723,5.48445596 87.987563,5.48445596 C89.7014387,5.48445596 91.2447794,6.19174563 92.3234964,7.32144245 Z M94.5,5.20687933 L93.4118698,6.26404272 C92.0538809,4.86552609 90.1260026,3.99222798 87.987563,3.99222798 C85.8628921,3.99222798 83.9460798,4.85431655 82.5895579,6.23709441 L81.5,5.18164431 C83.1355496,3.52895605 85.4375103,2.5 87.987563,2.5 C90.5505699,2.5 92.8629578,3.53943672 94.5,5.20687933 Z" id="Wi-Fi"></path>
                <text id="Carrier" font-family=".AppleSystemUIFont" font-size="12" font-weight="normal">
                    <tspan x="38" y="12.5">Sketch</tspan>
                </text>
                <path d="M3.25,10 C1.73121694,10 0.5,8.76878306 0.5,7.25 C0.5,5.73121694 1.73121694,4.5 3.25,4.5 C4.76878306,4.5 6,5.73121694 6,7.25 C6,8.76878306 4.76878306,10 3.25,10 Z M10.25,10 C8.73121694,10 7.5,8.76878306 7.5,7.25 C7.5,5.73121694 8.73121694,4.5 10.25,4.5 C11.7687831,4.5 13,5.73121694 13,7.25 C13,8.76878306 11.7687831,10 10.25,10 Z M17.25,10 C15.7312169,10 14.5,8.76878306 14.5,7.25 C14.5,5.73121694 15.7312169,4.5 17.25,4.5 C18.7687831,4.5 20,5.73121694 20,7.25 C20,8.76878306 18.7687831,10 17.25,10 Z M24.25,10 C22.7312169,10 21.5,8.76878306 21.5,7.25 C21.5,5.73121694 22.7312169,4.5 24.25,4.5 C25.7687831,4.5 27,5.73121694 27,7.25 C27,8.76878306 25.7687831,10 24.25,10 Z M31.25,10 C29.7312169,10 28.5,8.76878306 28.5,7.25 C28.5,5.73121694 29.7312169,4.5 31.25,4.5 C32.7687831,4.5 34,5.73121694 34,7.25 C34,8.76878306 32.7687831,10 31.25,10 Z" id="Mobile-Signal"></path>
            </g>
        </g>
    </g>
</svg>