<?xml version="1.0" encoding="UTF-8"?>
<svg width="334px" height="13px" viewBox="0 0 334 13" version="1.1" xmlns="http://www.w3.org/2000/svg" xmlns:xlink="http://www.w3.org/1999/xlink">
    <!-- Generator: Sketch 48.1 (47250) - http://www.bohemiancoding.com/sketch -->
    <title>Status BarBlack-iPhone X</title>
    <desc>Created with Sketch.</desc>
    <defs></defs>
    <g id="Page-1" stroke="none" stroke-width="1" fill="none" fill-rule="evenodd">
        <g id="Status-Bar-/-Black-/-iPhone-X" transform="translate(-20.000000, -4.000000)">
            <g id="Status-Bar-/-Black">
                <g id="Status-Bar-/-White">
                    <rect id="Background" fill-opacity="0" fill="#000000" x="0" y="0" width="374.784942" height="19.9885302"></rect>
                    <g id="Charge" transform="translate(327.312183, 4.497419)">
                        <g id="Battery">
                            <rect id="Shape" stroke="#000000" stroke-width="0.999426512" opacity="0.5" x="0.499713256" y="0.499713256" width="22.9868098" height="10.4939784" rx="1.99885302"></rect>
                            <path d="M2.49856628,1.99885302 L17.9896772,1.99885302 L17.9896772,9.49455186 L2.49856628,9.49455186 C2.22258227,9.49455186 1.99885302,9.27082262 1.99885302,8.99483861 L1.99885302,2.49856628 C1.99885302,2.22258227 2.22258227,1.99885302 2.49856628,1.99885302 Z" id="Shape" fill="#000000"></path>
                            <path d="M24.9856628,3.99770605 L24.9856628,3.99770605 C25.8136148,3.99770605 26.4848026,4.66889378 26.4848026,5.49684582 L26.4848026,5.99655907 C26.4848026,6.8245111 25.8136148,7.49569884 24.9856628,7.49569884 L24.9856628,3.99770605 Z" id="Shape" fill="#000000" opacity="0.5"></path>
                        </g>
                    </g>
                    <g id="Group-4" transform="translate(19.988530, 3.497993)" fill="#000000">
                        <text id="9:41" font-family=".AppleSystemUIFont" font-size="11.9931181" font-weight="normal">
                            <tspan x="0" y="12">9:41 AM</tspan>
                        </text>
                        <g id="Alarm-Clock-595b40b75ba036ed117d5054" transform="translate(53.969032, 2.498566)" fill-rule="nonzero">
                            <path d="M7.82796405,0.000848686922 C7.57162201,-0.000394382392 7.31343256,0.0435042539 7.06540901,0.135367302 L6.72592989,0.2681885 L9.4897142,3.03112417 L9.73244188,3.25263423 L9.85253253,2.94073777 C9.8592678,2.92552911 9.86577233,2.91012708 9.87120399,2.89448388 C10.1466981,2.11015133 9.9450136,1.22401231 9.35774167,0.636523339 C8.94607594,0.225156128 8.39191653,0.00358346548 7.82796405,0.000848686922 Z M2.29318152,0.0038191346 C1.68541875,-0.0282208933 1.07697712,0.195906607 0.636523339,0.636523339 C0.037953765,1.23509291 -0.159018817,2.13475678 0.134942959,2.92843179 L0.267764157,3.26748636 L3.03112417,0.504126484 L3.25136127,0.263096313 L2.94158641,0.141732541 C2.92594343,0.134997254 2.91056161,0.128285757 2.89448388,0.122636825 C2.69834642,0.0536546685 2.49576897,0.0144991584 2.29318152,0.0038191346 Z M4.99713256,0.869066532 C2.48118495,0.869066532 0.434533266,2.91571821 0.434533266,5.43166583 C0.434533266,7.94761344 2.48118495,9.99426512 4.99713256,9.99426512 C7.51308017,9.99426512 9.55973185,7.94761344 9.55973185,5.43166583 C9.55973185,2.91571821 7.51308017,0.869066532 4.99713256,0.869066532 Z M4.99713256,2.17266633 C5.11706374,2.17266633 5.21439919,2.27000178 5.21439919,2.38993296 L5.21439919,5.43166583 C5.21439919,5.55159701 5.11706374,5.64893246 4.99713256,5.64893246 L3.2589995,5.64893246 C3.13906831,5.64893246 3.04173286,5.55159701 3.04173286,5.43166583 C3.04173286,5.31173464 3.13906831,5.21439919 3.2589995,5.21439919 L4.77986593,5.21439919 L4.77986593,2.38993296 C4.77986593,2.27000178 4.87720138,2.17266633 4.99713256,2.17266633 Z" id="Shape"></path>
                        </g>
                    </g>
                    <path d="M318.411255,12.261085 C317.857281,11.8074779 317.143958,11.4934049 316.364198,11.4934049 C315.585936,11.4934049 314.873612,11.8069918 314.319638,12.2586541 L316.364198,14.4916844 L318.411255,12.261085 L318.411255,12.261085 Z M316.352958,10.0141441 C317.514856,10.0141441 318.576348,10.436039 319.395071,11.1309827 L320.390127,10.0318874 C319.307155,9.10233857 317.898492,8.49512535 316.352958,8.49512535 C314.810422,8.49512535 313.402758,9.10085996 312.320785,10.0274516 L313.314342,11.1280255 C314.132566,10.4345604 315.19256,10.0141441 316.352958,10.0141441 L316.352958,10.0141441 Z M316.314245,7.01685032 C318.252905,7.01685032 320.019728,7.73101586 321.374443,8.90206992 L322.31505,7.86359732 C320.710573,6.47075272 318.615061,5.49684582 316.314245,5.49684582 C314.016925,5.49684582 311.924411,6.46779552 310.321932,7.8562043 L311.260541,8.89615551 C312.614256,7.72855153 314.378083,7.01685032 316.314245,7.01685032 L316.314245,7.01685032 Z" id="Wifi" fill="#000000"></path>
                    <path d="M302.826233,4.99713256 L304.825086,4.99713256 C305.10107,4.99713256 305.324799,5.2208618 305.324799,5.49684582 L305.324799,14.4916844 C305.324799,14.7676684 305.10107,14.9913977 304.825086,14.9913977 L302.826233,14.9913977 C302.550249,14.9913977 302.32652,14.7676684 302.32652,14.4916844 L302.32652,5.49684582 C302.32652,5.2208618 302.550249,4.99713256 302.826233,4.99713256 Z M298.328814,6.99598558 L300.327667,6.99598558 C300.603651,6.99598558 300.82738,7.21971483 300.82738,7.49569884 L300.82738,14.4916844 C300.82738,14.7676684 300.603651,14.9913977 300.327667,14.9913977 L298.328814,14.9913977 C298.05283,14.9913977 297.829101,14.7676684 297.829101,14.4916844 L297.829101,7.49569884 C297.829101,7.21971483 298.05283,6.99598558 298.328814,6.99598558 Z M293.831394,8.99483861 L295.830248,8.99483861 C296.106232,8.99483861 296.329961,9.21856785 296.329961,9.49455186 L296.329961,14.4916844 C296.329961,14.7676684 296.106232,14.9913977 295.830248,14.9913977 L293.831394,14.9913977 C293.55541,14.9913977 293.331681,14.7676684 293.331681,14.4916844 L293.331681,9.49455186 C293.331681,9.21856785 293.55541,8.99483861 293.831394,8.99483861 Z M289.333975,10.4939784 L291.332828,10.4939784 C291.608812,10.4939784 291.832541,10.7177076 291.832541,10.9936916 L291.832541,14.4916844 C291.832541,14.7676684 291.608812,14.9913977 291.332828,14.9913977 L289.333975,14.9913977 C289.057991,14.9913977 288.834262,14.7676684 288.834262,14.4916844 L288.834262,10.9936916 C288.834262,10.7177076 289.057991,10.4939784 289.333975,10.4939784 Z" id="Signal-Icon" fill="#000000"></path>
                </g>
            </g>
        </g>
    </g>
</svg>